<svg width="102" height="23" viewBox="0 0 102 23" fill="none" xmlns="http://www.w3.org/2000/svg">
<path d="M15.74 13.27C15.84 13.55 15.91 13.87 15.95 14.23C16.01 14.57 16.04 14.92 16.04 15.28C16.04 15.64 16.01 16 15.95 16.36C15.91 16.7 15.85 17 15.77 17.26C15.45 18.38 14.81 19.32 13.85 20.08C12.89 20.82 11.79 21.36 10.55 21.7C9.32997 22.04 8.05997 22.16 6.73997 22.06C5.43997 21.96 4.27997 21.63 3.25997 21.07C2.61997 20.71 2.06997 20.27 1.60997 19.75C1.14997 19.23 0.75997 18.65 0.43997 18.01C0.31997 17.79 0.23997 17.54 0.19997 17.26C0.17997 16.96 0.20997 16.68 0.28997 16.42C0.36997 16.14 0.49997 15.9 0.67997 15.7C0.85997 15.48 1.10997 15.33 1.42997 15.25C1.62997 15.21 1.84997 15.19 2.08997 15.19C2.34997 15.19 2.59997 15.23 2.83997 15.31C3.07997 15.37 3.29997 15.48 3.49997 15.64C3.69997 15.78 3.85997 15.98 3.97997 16.24C4.19997 16.66 4.50997 17.05 4.90997 17.41C5.32997 17.75 5.76997 18.03 6.22997 18.25C6.88997 18.47 7.54997 18.56 8.20997 18.52C8.88997 18.48 9.49997 18.33 10.04 18.07C10.6 17.81 11.05 17.46 11.39 17.02C11.73 16.56 11.9 16.04 11.9 15.46C11.9 14.98 11.83 14.59 11.69 14.29C11.55 13.97 11.35 13.71 11.09 13.51C10.85 13.29 10.55 13.11 10.19 12.97C9.84997 12.83 9.46997 12.71 9.04997 12.61C8.56997 12.51 8.07997 12.44 7.57997 12.4C7.09997 12.36 6.60997 12.31 6.10997 12.25C5.60997 12.19 5.11997 12.11 4.63997 12.01C4.15997 11.91 3.68997 11.76 3.22997 11.56C2.30997 11.18 1.60997 10.6 1.12997 9.82001C0.64997 9.04001 0.35997 8.20001 0.25997 7.30001C0.17997 6.40001 0.28997 5.51001 0.58997 4.63001C0.88997 3.73001 1.36997 2.96001 2.02997 2.32001C2.66997 1.74001 3.42997 1.33001 4.30997 1.09001C5.20997 0.830007 6.19997 0.680007 7.27997 0.640008C7.87997 0.620007 8.47997 0.640007 9.07997 0.700007C9.69997 0.760008 10.29 0.860007 10.85 1.00001C11.43 1.14001 11.96 1.32001 12.44 1.54001C12.94 1.76001 13.37 2.02001 13.73 2.32001C13.99 2.52001 14.25 2.79001 14.51 3.13001C14.77 3.45001 14.97 3.80001 15.11 4.18001C15.25 4.54001 15.29 4.89001 15.23 5.23001C15.19 5.57001 14.98 5.86001 14.6 6.10001C14.28 6.30001 13.97 6.39001 13.67 6.37001C13.39 6.33001 13.12 6.24001 12.86 6.10001C12.6 5.94001 12.35 5.76001 12.11 5.56001C11.87 5.36001 11.65 5.18001 11.45 5.02001C10.91 4.62001 10.24 4.35001 9.43997 4.21001C8.63997 4.07001 7.88997 4.04001 7.18997 4.12001C6.74997 4.18001 6.33997 4.28001 5.95997 4.42001C5.57997 4.56001 5.24997 4.75001 4.96997 4.99001C4.70997 5.23001 4.49997 5.53001 4.33997 5.89001C4.19997 6.23001 4.14997 6.62001 4.18997 7.06001C4.20997 7.38001 4.29997 7.65001 4.45997 7.87001C4.63997 8.09001 4.84997 8.27001 5.08997 8.41001C5.34997 8.55001 5.62997 8.66001 5.92997 8.74001C6.22997 8.82001 6.52997 8.88001 6.82997 8.92001C7.72997 9.04001 8.62997 9.13001 9.52997 9.19001C10.43 9.25001 11.31 9.45001 12.17 9.79001C13.05 10.13 13.8 10.59 14.42 11.17C15.04 11.75 15.48 12.45 15.74 13.27Z" fill="#0D3F67"/>
<path d="M29.6119 10.45C29.7719 10.73 29.8519 11.03 29.8519 11.35C29.8719 11.67 29.8019 11.97 29.6419 12.25C29.4619 12.61 29.2019 12.86 28.8619 13C28.5419 13.12 28.1819 13.13 27.7819 13.03C27.6019 12.99 27.4419 12.92 27.3019 12.82C27.1619 12.72 27.0119 12.62 26.8519 12.52C26.7119 12.4 26.5419 12.29 26.3419 12.19C26.1619 12.09 25.9219 12.02 25.6219 11.98C25.3219 11.94 24.9919 11.94 24.6319 11.98C24.2919 12.02 23.9819 12.1 23.7019 12.22C23.2619 12.44 22.9119 12.78 22.6519 13.24C22.3919 13.68 22.2219 14.16 22.1419 14.68C22.0619 15.18 22.0719 15.69 22.1719 16.21C22.2919 16.73 22.5119 17.17 22.8319 17.53C23.0719 17.81 23.3819 18.04 23.7619 18.22C24.1619 18.4 24.5419 18.51 24.9019 18.55C25.2419 18.59 25.5819 18.59 25.9219 18.55C26.2619 18.49 26.5919 18.41 26.9119 18.31C27.1519 18.21 27.4219 18.08 27.7219 17.92C28.0219 17.74 28.3119 17.63 28.5919 17.59C28.9519 17.59 29.2319 17.69 29.4319 17.89C29.6319 18.07 29.7719 18.3 29.8519 18.58C29.9319 18.84 29.9419 19.12 29.8819 19.42C29.8419 19.72 29.7319 19.98 29.5519 20.2C29.3119 20.5 28.9719 20.79 28.5319 21.07C28.0919 21.33 27.6719 21.52 27.2719 21.64C26.7919 21.8 26.2519 21.89 25.6519 21.91C25.0719 21.93 24.5219 21.91 24.0019 21.85C23.7619 21.81 23.5119 21.76 23.2519 21.7C22.9919 21.64 22.7419 21.57 22.5019 21.49C21.6219 21.17 20.8819 20.72 20.2819 20.14C19.7019 19.54 19.2519 18.87 18.9319 18.13C18.6319 17.39 18.4619 16.6 18.4219 15.76C18.3819 14.92 18.4819 14.09 18.7219 13.27C18.9419 12.49 19.2119 11.83 19.5319 11.29C19.8719 10.75 20.2619 10.31 20.7019 9.97001C21.1619 9.61001 21.6719 9.33001 22.2319 9.13001C22.7919 8.91001 23.4119 8.72001 24.0919 8.56001C24.7919 8.42001 25.5319 8.42001 26.3119 8.56001C27.0919 8.70001 27.7919 8.96001 28.4119 9.34001C28.8919 9.60001 29.2919 9.97001 29.6119 10.45Z" fill="#0D3F67"/>
<path d="M32.3393 11.38C32.3393 11.14 32.3393 10.87 32.3393 10.57C32.3393 10.25 32.3493 9.93001 32.3693 9.61001C32.3893 9.27001 32.4193 8.95001 32.4593 8.65001C32.5193 8.33001 32.5993 8.05001 32.6993 7.81001C32.8593 7.45001 33.1093 7.21001 33.4493 7.09001C33.7893 6.95001 34.1593 6.89001 34.5593 6.91001C34.9793 6.91001 35.3093 6.98001 35.5493 7.12001C35.7893 7.26001 35.9693 7.45001 36.0893 7.69001C36.2093 7.91001 36.2793 8.17001 36.2993 8.47001C36.3393 8.75001 36.3593 9.05001 36.3593 9.37001C36.5393 9.05001 36.7793 8.79001 37.0793 8.59001C37.3993 8.39001 37.7193 8.23001 38.0393 8.11001C38.3593 7.99001 38.6493 7.91001 38.9093 7.87001C39.1693 7.81001 39.3193 7.78001 39.3593 7.78001C39.8593 7.74001 40.3093 7.73001 40.7093 7.75001C41.1293 7.77001 41.5893 7.86001 42.0893 8.02001C42.4093 8.14001 42.7393 8.31001 43.0793 8.53001C43.4193 8.73001 43.7193 8.97001 43.9793 9.25001C44.2393 9.53001 44.4093 9.84001 44.4893 10.18C44.5893 10.5 44.5493 10.84 44.3693 11.2C44.0893 11.7 43.7793 11.95 43.4393 11.95C43.0993 11.93 42.7293 11.87 42.3293 11.77C42.1093 11.73 41.8493 11.64 41.5493 11.5C41.2493 11.36 40.9893 11.27 40.7693 11.23C40.0893 11.13 39.4893 11.18 38.9693 11.38C38.4493 11.58 37.9993 11.82 37.6193 12.1C37.1793 12.44 36.7993 12.83 36.4793 13.27V17.59C36.4793 18.13 36.4693 18.69 36.4493 19.27C36.4493 19.85 36.3693 20.38 36.2093 20.86C36.0693 21.32 35.8193 21.7 35.4593 22C35.1193 22.28 34.6193 22.4 33.9593 22.36C33.5993 22.34 33.2793 22.17 32.9993 21.85C32.7193 21.51 32.5493 21.18 32.4893 20.86C32.4493 20.56 32.4193 20.2 32.3993 19.78C32.3793 19.36 32.3593 18.92 32.3393 18.46C32.3393 18 32.3393 17.54 32.3393 17.08C32.3393 16.6 32.3393 16.16 32.3393 15.76V11.38Z" fill="#0D3F67"/>
<path d="M50.7378 10.63C50.7378 11.19 50.7378 11.82 50.7378 12.52C50.7578 13.22 50.7678 13.95 50.7678 14.71C50.7678 15.45 50.7678 16.19 50.7678 16.93C50.7678 17.65 50.7578 18.32 50.7378 18.94C50.7178 19.24 50.6878 19.57 50.6478 19.93C50.6078 20.27 50.5278 20.59 50.4078 20.89C50.2878 21.19 50.0978 21.44 49.8378 21.64C49.5978 21.82 49.2678 21.9 48.8478 21.88C48.2278 21.84 47.7778 21.57 47.4978 21.07C47.2378 20.57 47.0878 19.87 47.0478 18.97C47.0478 18.51 47.0378 17.98 47.0178 17.38C47.0178 16.78 47.0078 16.17 46.9878 15.55C46.9878 14.93 46.9878 14.33 46.9878 13.75C46.9878 13.15 46.9878 12.61 46.9878 12.13C46.9878 11.85 46.9778 11.51 46.9578 11.11C46.9578 10.71 46.9678 10.3 46.9878 9.88001C47.0078 9.46001 47.0578 9.06001 47.1378 8.68001C47.2178 8.28001 47.3478 7.95001 47.5278 7.69001C47.6678 7.53001 47.8678 7.41001 48.1278 7.33001C48.3878 7.23001 48.6578 7.18001 48.9378 7.18001C49.2378 7.18001 49.5178 7.23001 49.7778 7.33001C50.0578 7.43001 50.2578 7.57001 50.3778 7.75001C50.4578 7.87001 50.5178 8.04001 50.5578 8.26001C50.5978 8.48001 50.6278 8.73001 50.6478 9.01001C50.6878 9.27001 50.7078 9.55001 50.7078 9.85001C50.7278 10.13 50.7378 10.39 50.7378 10.63ZM49.5978 4.57001C48.9778 4.73001 48.4578 4.67001 48.0378 4.39001C47.6378 4.09001 47.3878 3.65001 47.2878 3.07001C47.2078 2.65001 47.2378 2.28001 47.3778 1.96001C47.5178 1.64001 47.7278 1.40001 48.0078 1.24001C48.2878 1.06001 48.6078 0.980007 48.9678 1.00001C49.3278 1.02001 49.6878 1.16001 50.0478 1.42001C50.3878 1.66001 50.6278 1.94001 50.7678 2.26001C50.9278 2.58001 50.9778 2.89001 50.9178 3.19001C50.8778 3.49001 50.7478 3.77001 50.5278 4.03001C50.3078 4.27001 49.9978 4.45001 49.5978 4.57001Z" fill="#0D3F67"/>
<path d="M53.4338 3.04001C53.4738 2.32001 53.6938 1.74001 54.0938 1.30001C54.5138 0.860007 55.1038 0.740008 55.8638 0.940008C56.2238 1.04001 56.4838 1.19001 56.6438 1.39001C56.8238 1.59001 56.9438 1.83001 57.0038 2.11001C57.0838 2.37001 57.1238 2.66001 57.1238 2.98001C57.1238 3.28001 57.1238 3.58001 57.1238 3.88001V8.02001C57.1038 8.18001 57.0938 8.34001 57.0938 8.50001C57.1138 8.64001 57.1238 8.77001 57.1238 8.89001V9.28001H57.8738C58.0938 9.28001 58.3038 9.28001 58.5038 9.28001C58.7238 9.28001 58.9138 9.27001 59.0738 9.25001C60.1738 9.25001 61.1138 9.41001 61.8938 9.73001C62.6938 10.05 63.3338 10.5 63.8138 11.08C64.3138 11.64 64.6738 12.32 64.8938 13.12C65.1338 13.9 65.2438 14.76 65.2238 15.7C65.2038 16.82 65.0238 17.78 64.6838 18.58C64.3438 19.38 63.8638 20.04 63.2438 20.56C62.6238 21.08 61.8738 21.47 60.9938 21.73C60.1338 21.97 59.1638 22.09 58.0838 22.09C56.8438 22.09 55.9038 22.08 55.2638 22.06C54.6238 22.04 54.1638 21.86 53.8838 21.52C53.6238 21.18 53.4838 20.59 53.4638 19.75C53.4438 18.91 53.4338 17.68 53.4338 16.06C53.4338 14.5 53.4338 12.96 53.4338 11.44C53.4538 9.92001 53.4538 8.39001 53.4338 6.85001C53.4338 6.65001 53.4238 6.44001 53.4038 6.22001C53.4038 6.00001 53.4038 5.75001 53.4038 5.47001C53.4038 5.19001 53.4038 4.86001 53.4038 4.48001C53.4038 4.08001 53.4138 3.60001 53.4338 3.04001ZM59.0438 18.73C60.1438 18.67 60.9038 18.37 61.3238 17.83C61.5438 17.53 61.7138 17.17 61.8338 16.75C61.9538 16.33 62.0038 15.91 61.9838 15.49C61.9638 15.07 61.8738 14.67 61.7138 14.29C61.5738 13.89 61.3438 13.56 61.0238 13.3C60.7438 13.06 60.4638 12.89 60.1838 12.79C59.9038 12.67 59.6138 12.6 59.3138 12.58C59.0138 12.54 58.6938 12.53 58.3538 12.55C58.0138 12.55 57.6238 12.56 57.1838 12.58V16.18L57.1238 18.67C57.3238 18.69 57.5338 18.71 57.7538 18.73C58.1338 18.77 58.5638 18.77 59.0438 18.73Z" fill="#0D3F67"/>
<path d="M67.7014 3.04001C67.7414 2.32001 67.9614 1.74001 68.3614 1.30001C68.7814 0.860007 69.3714 0.740008 70.1314 0.940008C70.4914 1.04001 70.7514 1.19001 70.9114 1.39001C71.0914 1.59001 71.2114 1.83001 71.2714 2.11001C71.3514 2.37001 71.3914 2.66001 71.3914 2.98001C71.3914 3.28001 71.3914 3.58001 71.3914 3.88001V8.02001C71.3714 8.18001 71.3614 8.34001 71.3614 8.50001C71.3814 8.64001 71.3914 8.77001 71.3914 8.89001V9.28001H72.1414C72.3614 9.28001 72.5714 9.28001 72.7714 9.28001C72.9914 9.28001 73.1814 9.27001 73.3414 9.25001C74.4414 9.25001 75.3814 9.41001 76.1614 9.73001C76.9614 10.05 77.6014 10.5 78.0814 11.08C78.5814 11.64 78.9414 12.32 79.1614 13.12C79.4014 13.9 79.5114 14.76 79.4914 15.7C79.4714 16.82 79.2914 17.78 78.9514 18.58C78.6114 19.38 78.1314 20.04 77.5114 20.56C76.8914 21.08 76.1414 21.47 75.2614 21.73C74.4014 21.97 73.4314 22.09 72.3514 22.09C71.1114 22.09 70.1714 22.08 69.5314 22.06C68.8914 22.04 68.4314 21.86 68.1514 21.52C67.8914 21.18 67.7514 20.59 67.7314 19.75C67.7114 18.91 67.7014 17.68 67.7014 16.06C67.7014 14.5 67.7014 12.96 67.7014 11.44C67.7214 9.92001 67.7214 8.39001 67.7014 6.85001C67.7014 6.65001 67.6914 6.44001 67.6714 6.22001C67.6714 6.00001 67.6714 5.75001 67.6714 5.47001C67.6714 5.19001 67.6714 4.86001 67.6714 4.48001C67.6714 4.08001 67.6814 3.60001 67.7014 3.04001ZM73.3114 18.73C74.4114 18.67 75.1714 18.37 75.5914 17.83C75.8114 17.53 75.9814 17.17 76.1014 16.75C76.2214 16.33 76.2714 15.91 76.2514 15.49C76.2314 15.07 76.1414 14.67 75.9814 14.29C75.8414 13.89 75.6114 13.56 75.2914 13.3C75.0114 13.06 74.7314 12.89 74.4514 12.79C74.1714 12.67 73.8814 12.6 73.5814 12.58C73.2814 12.54 72.9614 12.53 72.6214 12.55C72.2814 12.55 71.8914 12.56 71.4514 12.58V16.18L71.3914 18.67C71.5914 18.69 71.8014 18.71 72.0214 18.73C72.4014 18.77 72.8314 18.77 73.3114 18.73Z" fill="#0D3F67"/>
<path d="M85.899 19.6C85.879 19.7 85.859 19.8 85.839 19.9C85.839 19.98 85.839 20.07 85.839 20.17L85.659 20.8C85.619 20.88 85.589 20.93 85.569 20.95L85.479 21.13C85.379 21.35 85.199 21.53 84.939 21.67C84.459 21.91 83.949 21.97 83.409 21.85C83.069 21.81 82.799 21.71 82.599 21.55C82.399 21.41 82.259 21.24 82.179 21.04C82.099 20.84 82.039 20.64 81.999 20.44C81.939 20.24 81.909 20.06 81.909 19.9V3.10001C81.909 2.96001 81.909 2.84001 81.909 2.74001C81.929 2.62001 81.949 2.51001 81.969 2.41001C81.989 2.27001 82.009 2.15001 82.029 2.05001C82.069 1.95001 82.109 1.84001 82.149 1.72001C82.209 1.52001 82.319 1.36001 82.479 1.24001C82.719 1.06001 82.949 0.960007 83.169 0.940008C83.309 0.900007 83.439 0.880007 83.559 0.880007C83.679 0.860007 83.819 0.850007 83.979 0.850007C84.259 0.850007 84.579 0.930007 84.939 1.09001C85.219 1.25001 85.419 1.47001 85.539 1.75001C85.739 2.15001 85.839 2.52001 85.839 2.86001C85.859 3.06001 85.869 3.36001 85.869 3.76001C85.889 4.16001 85.899 4.46001 85.899 4.66001V4.78001C85.939 5.42001 85.959 6.04001 85.959 6.64001C85.959 7.22001 85.949 7.86001 85.929 8.56001C85.929 9.24001 85.919 9.90001 85.899 10.54C85.899 11.16 85.899 11.78 85.899 12.4V18.7C85.899 18.78 85.899 18.86 85.899 18.94C85.919 19 85.929 19.07 85.929 19.15C85.929 19.35 85.919 19.5 85.899 19.6Z" fill="#0D3F67"/>
<path d="M98.7343 17.89C98.9743 17.83 99.2143 17.79 99.4543 17.77C99.7143 17.75 99.9443 17.78 100.144 17.86C100.364 17.94 100.544 18.08 100.684 18.28C100.824 18.46 100.894 18.72 100.894 19.06C100.894 19.3 100.834 19.53 100.714 19.75C100.594 19.97 100.444 20.17 100.264 20.35C100.084 20.53 99.8843 20.69 99.6643 20.83C99.4443 20.95 99.2343 21.05 99.0343 21.13C98.4543 21.39 97.7843 21.59 97.0243 21.73C96.2843 21.87 95.5143 21.92 94.7143 21.88C93.6343 21.84 92.5943 21.63 91.5943 21.25C90.6143 20.85 89.8443 20.2 89.2843 19.3C88.7643 18.42 88.4543 17.44 88.3543 16.36C88.2543 15.28 88.3043 14.26 88.5043 13.3C88.7243 12.14 89.0943 11.2 89.6143 10.48C90.1543 9.74001 90.7943 9.15001 91.5343 8.71001C92.4343 8.19001 93.4443 7.92001 94.5643 7.90001C95.6843 7.88001 96.7543 8.10001 97.7743 8.56001C98.4543 8.86001 99.0643 9.27001 99.6043 9.79001C100.144 10.29 100.554 10.9 100.834 11.62C100.914 11.8 100.974 12.02 101.014 12.28C101.074 12.54 101.114 12.82 101.134 13.12C101.154 13.4 101.154 13.68 101.134 13.96C101.114 14.24 101.064 14.49 100.984 14.71C100.864 15.07 100.714 15.35 100.534 15.55C100.354 15.75 100.124 15.9 99.8443 16C99.5643 16.1 99.2243 16.17 98.8243 16.21C98.4443 16.23 97.9843 16.25 97.4443 16.27C96.9643 16.29 96.5143 16.3 96.0943 16.3C95.6743 16.3 95.2443 16.3 94.8043 16.3C94.3643 16.28 93.9043 16.27 93.4243 16.27C92.9643 16.25 92.4443 16.23 91.8643 16.21C91.8043 16.61 91.8543 16.96 92.0143 17.26C92.1943 17.54 92.4343 17.78 92.7343 17.98C93.0343 18.16 93.3743 18.3 93.7543 18.4C94.1343 18.5 94.5043 18.56 94.8643 18.58C95.5443 18.62 96.1943 18.57 96.8143 18.43C97.4343 18.27 98.0743 18.09 98.7343 17.89ZM97.4443 12.07C97.0643 11.63 96.6643 11.31 96.2443 11.11C95.9243 10.97 95.5843 10.91 95.2243 10.93C94.8843 10.93 94.5543 10.98 94.2343 11.08C93.6543 11.22 93.1643 11.52 92.7643 11.98C92.7243 12.02 92.6543 12.12 92.5543 12.28C92.4543 12.42 92.3543 12.57 92.2543 12.73C92.1743 12.89 92.1143 13.04 92.0743 13.18C92.0343 13.32 92.0543 13.39 92.1343 13.39H98.0143C97.9943 13.11 97.9443 12.88 97.8643 12.7C97.7843 12.5 97.6443 12.29 97.4443 12.07Z" fill="#0D3F67"/>
</svg>
