<svg width="115" height="25" viewBox="0 0 115 25" fill="none" xmlns="http://www.w3.org/2000/svg">
<path d="M17.7087 14.5359C17.8226 14.8579 17.9024 15.226 17.9479 15.6401C18.0163 16.0312 18.0505 16.4337 18.0505 16.8478C18.0505 17.2619 18.0163 17.676 17.9479 18.0901C17.9024 18.4811 17.834 18.8262 17.7429 19.1253C17.3784 20.4135 16.6493 21.4947 15.5558 22.3689C14.4622 23.22 13.2092 23.8412 11.7967 24.2322C10.407 24.6233 8.9603 24.7613 7.45667 24.6463C5.97581 24.5313 4.65444 24.1517 3.49254 23.5076C2.7635 23.0935 2.13699 22.5874 1.61299 21.9893C1.089 21.3912 0.644741 20.7241 0.280223 19.9879C0.143529 19.7349 0.0523995 19.4473 0.00683473 19.1253C-0.0159477 18.7802 0.0182258 18.4581 0.109355 18.1591C0.200485 17.837 0.34857 17.561 0.553611 17.3309C0.758653 17.0779 1.04343 16.9053 1.40795 16.8133C1.63577 16.7673 1.88638 16.7443 2.15977 16.7443C2.45594 16.7443 2.74072 16.7903 3.01411 16.8823C3.28749 16.9513 3.5381 17.0779 3.76592 17.2619C3.99375 17.4229 4.17601 17.653 4.3127 17.952C4.56331 18.4351 4.91643 18.8837 5.37208 19.2978C5.85051 19.6889 6.35172 20.0109 6.87572 20.264C7.62753 20.517 8.37935 20.6205 9.13117 20.5745C9.90577 20.5285 10.6006 20.356 11.2158 20.0569C11.8537 19.7579 12.3663 19.3553 12.7536 18.8492C13.1409 18.3201 13.3345 17.722 13.3345 17.0549C13.3345 16.5028 13.2548 16.0542 13.0953 15.7091C12.9358 15.341 12.708 15.042 12.4118 14.8119C12.1384 14.5589 11.7967 14.3519 11.3866 14.1908C10.9993 14.0298 10.5665 13.8918 10.088 13.7767C9.54125 13.6617 8.98308 13.5812 8.41353 13.5352C7.86675 13.4892 7.30858 13.4317 6.73902 13.3627C6.16946 13.2937 5.6113 13.2016 5.06452 13.0866C4.51774 12.9716 3.98236 12.7991 3.45836 12.569C2.41037 12.1319 1.61299 11.4648 1.06621 10.5676C0.519438 9.67046 0.189094 8.70428 0.0751818 7.66908C-0.0159476 6.63389 0.109355 5.61019 0.451091 4.598C0.792826 3.5628 1.3396 2.67713 2.09142 1.94099C2.82046 1.27387 3.68619 0.802277 4.68861 0.526225C5.71382 0.227168 6.84154 0.0546354 8.07179 0.0086273C8.75526 -0.0143781 9.43873 0.00862593 10.1222 0.0776395C10.8285 0.146653 11.5005 0.261675 12.1384 0.422705C12.7991 0.583736 13.4029 0.790775 13.9496 1.04382C14.5192 1.29687 15.009 1.59593 15.4191 1.94099C15.7153 2.17104 16.0114 2.4816 16.3076 2.87267C16.6038 3.24074 16.8316 3.64332 16.9911 4.0804C17.1506 4.49448 17.1961 4.89706 17.1278 5.28813C17.0822 5.6792 16.843 6.01277 16.4101 6.28882C16.0456 6.51886 15.6925 6.62238 15.3508 6.59938C15.0318 6.55337 14.7242 6.44985 14.4281 6.28882C14.1319 6.10478 13.8471 5.89774 13.5737 5.6677C13.3003 5.43766 13.0497 5.23062 12.8219 5.04658C12.2068 4.5865 11.4436 4.27594 10.5323 4.11491C9.62099 3.95388 8.76665 3.91937 7.96927 4.01139C7.46806 4.0804 7.00102 4.19542 6.56815 4.35645C6.13529 4.51748 5.75938 4.73602 5.44043 5.01208C5.14426 5.28813 4.90504 5.6332 4.72278 6.04727C4.56331 6.43835 4.50635 6.88693 4.55192 7.39303C4.5747 7.7611 4.67722 8.07166 4.85948 8.32471C5.06452 8.57776 5.30373 8.78479 5.57712 8.94583C5.87329 9.10686 6.19225 9.23338 6.53398 9.3254C6.87572 9.41741 7.21745 9.48643 7.55919 9.53244C8.58439 9.67046 9.6096 9.77398 10.6348 9.843C11.66 9.91201 12.6624 10.1421 13.6421 10.5331C14.6445 10.9242 15.4988 11.4533 16.2051 12.1204C16.9113 12.7876 17.4126 13.5927 17.7087 14.5359Z" fill="#6B48FF"/>
<path d="M33.5105 11.2923C33.6928 11.6143 33.7839 11.9594 33.7839 12.3275C33.8067 12.6955 33.727 13.0406 33.5447 13.3627C33.3397 13.7767 33.0435 14.0643 32.6562 14.2253C32.2917 14.3634 31.8816 14.3749 31.4259 14.2598C31.2209 14.2138 31.0386 14.1333 30.8792 14.0183C30.7197 13.9033 30.5488 13.7882 30.3666 13.6732C30.2071 13.5352 30.0134 13.4087 29.7856 13.2937C29.5806 13.1786 29.3072 13.0981 28.9654 13.0521C28.6237 13.0061 28.2478 13.0061 27.8377 13.0521C27.4504 13.0981 27.0973 13.1901 26.7783 13.3282C26.2771 13.5812 25.8784 13.9723 25.5823 14.5014C25.2861 15.0075 25.0924 15.5596 25.0013 16.1577C24.9102 16.7328 24.9216 17.3194 25.0355 17.9175C25.1722 18.5156 25.4228 19.0217 25.7873 19.4358C26.0607 19.7579 26.4138 20.0224 26.8467 20.2295C27.3023 20.4365 27.7352 20.563 28.1453 20.609C28.5326 20.6551 28.9199 20.6551 29.3072 20.609C29.6945 20.54 30.0704 20.448 30.4349 20.333C30.7083 20.218 31.0159 20.0684 31.3576 19.8844C31.6993 19.6774 32.0297 19.5508 32.3486 19.5048C32.7587 19.5048 33.0777 19.6199 33.3055 19.8499C33.5333 20.0569 33.6928 20.3215 33.7839 20.6435C33.875 20.9426 33.8864 21.2647 33.8181 21.6097C33.7725 21.9548 33.6472 22.2539 33.4422 22.5069C33.1688 22.852 32.7815 23.1855 32.2803 23.5076C31.7791 23.8066 31.3006 24.0252 30.845 24.1632C30.2982 24.3473 29.6831 24.4508 28.9996 24.4738C28.3389 24.4968 27.7124 24.4738 27.1201 24.4048C26.8467 24.3588 26.5619 24.3012 26.2657 24.2322C25.9696 24.1632 25.6848 24.0827 25.4114 23.9907C24.409 23.6226 23.566 23.105 22.8825 22.4379C22.2219 21.7478 21.7093 20.9771 21.3447 20.1259C21.003 19.2748 20.8094 18.3661 20.7638 17.3999C20.7182 16.4337 20.8321 15.4791 21.1055 14.5359C21.3561 13.6387 21.6637 12.8796 22.0282 12.2585C22.4155 11.6373 22.8598 11.1312 23.361 10.7402C23.885 10.3261 24.4659 10.004 25.1038 9.77398C25.7417 9.52093 26.448 9.30239 27.2226 9.11836C28.02 8.95733 28.8629 8.95733 29.7514 9.11836C30.6399 9.27939 31.4373 9.57845 32.1436 10.0155C32.6904 10.3146 33.146 10.7402 33.5105 11.2923Z" fill="#6B48FF"/>
<path d="M36.6174 12.362C36.6174 12.0859 36.6174 11.7754 36.6174 11.4303C36.6174 11.0622 36.6288 10.6942 36.6515 10.3261C36.6743 9.93501 36.7085 9.56694 36.7541 9.22188C36.8224 8.85381 36.9135 8.53175 37.0275 8.25569C37.2097 7.84161 37.4945 7.56556 37.8818 7.42754C38.2691 7.26651 38.6906 7.19749 39.1462 7.2205C39.6246 7.2205 40.0006 7.30101 40.2739 7.46204C40.5473 7.62307 40.7524 7.84161 40.8891 8.11767C41.0258 8.37072 41.1055 8.66977 41.1283 9.01484C41.1738 9.3369 41.1966 9.68196 41.1966 10.05C41.4017 9.68196 41.6751 9.38291 42.0168 9.15286C42.3813 8.92282 42.7458 8.73879 43.1103 8.60076C43.4749 8.46273 43.8052 8.37072 44.1014 8.32471C44.3975 8.25569 44.5684 8.22119 44.614 8.22119C45.1835 8.17518 45.6961 8.16368 46.1518 8.18668C46.6302 8.20968 47.1542 8.3132 47.7238 8.49724C48.0883 8.63527 48.4642 8.8308 48.8515 9.08385C49.2388 9.31389 49.5805 9.58995 49.8767 9.91201C50.1729 10.2341 50.3665 10.5906 50.4577 10.9817C50.5716 11.3498 50.526 11.7409 50.321 12.1549C50.002 12.73 49.6489 13.0176 49.2616 13.0176C48.8743 12.9946 48.4528 12.9256 47.9972 12.8106C47.7466 12.7646 47.4504 12.661 47.1087 12.5C46.7669 12.339 46.4707 12.2354 46.2201 12.1894C45.4455 12.0744 44.7621 12.1319 44.1697 12.362C43.5774 12.592 43.0648 12.8681 42.6319 13.1901C42.1307 13.5812 41.6978 14.0298 41.3333 14.5359V19.5048C41.3333 20.1259 41.3219 20.7701 41.2991 21.4372C41.2991 22.1043 41.208 22.7139 41.0258 23.266C40.8663 23.7951 40.5815 24.2322 40.1714 24.5773C39.7841 24.8994 39.2146 25.0374 38.4627 24.9914C38.0527 24.9684 37.6881 24.7728 37.3692 24.4048C37.0502 24.0137 36.8566 23.6341 36.7882 23.266C36.7427 22.921 36.7085 22.5069 36.6857 22.0238C36.6629 21.5407 36.6402 21.0346 36.6174 20.5055C36.6174 19.9764 36.6174 19.4473 36.6174 18.9182C36.6174 18.3661 36.6174 17.86 36.6174 17.3999V12.362Z" fill="#6B48FF"/>
<path d="M57.5754 11.4993C57.5754 12.1434 57.5754 12.8681 57.5754 13.6732C57.5981 14.4784 57.6095 15.318 57.6095 16.1922C57.6095 17.0434 57.6095 17.8945 57.6095 18.7457C57.6095 19.5738 57.5981 20.3445 57.5754 21.0576C57.5526 21.4027 57.5184 21.7823 57.4728 22.1963C57.4273 22.5874 57.3362 22.9555 57.1995 23.3006C57.0628 23.6456 56.8463 23.9332 56.5502 24.1632C56.2768 24.3703 55.9009 24.4623 55.4224 24.4393C54.7162 24.3933 54.2036 24.0827 53.8846 23.5076C53.5885 22.9325 53.4176 22.1273 53.372 21.0921C53.372 20.563 53.3606 19.9534 53.3378 19.2633C53.3378 18.5732 53.3265 17.8715 53.3037 17.1584C53.3037 16.4452 53.3037 15.7551 53.3037 15.088C53.3037 14.3979 53.3037 13.7767 53.3037 13.2246C53.3037 12.9026 53.2923 12.5115 53.2695 12.0514C53.2695 11.5913 53.2809 11.1197 53.3037 10.6366C53.3265 10.1536 53.3834 9.69347 53.4745 9.25638C53.5657 8.7963 53.7138 8.41672 53.9188 8.11767C54.0783 7.93363 54.3061 7.79561 54.6023 7.70359C54.8984 7.58857 55.206 7.53106 55.525 7.53106C55.8667 7.53106 56.1856 7.58857 56.4818 7.70359C56.8008 7.81861 57.0286 7.97964 57.1653 8.18668C57.2564 8.32471 57.3248 8.52024 57.3703 8.77329C57.4159 9.02634 57.4501 9.31389 57.4728 9.63596C57.5184 9.93501 57.5412 10.2571 57.5412 10.6021C57.564 10.9242 57.5754 11.2233 57.5754 11.4993ZM56.2768 4.52899C55.5705 4.71302 54.9782 4.64401 54.4997 4.32195C54.0441 3.97688 53.7593 3.47078 53.6454 2.80366C53.5543 2.32057 53.5885 1.89499 53.7479 1.52691C53.9074 1.15885 54.1466 0.882793 54.4656 0.698758C54.7845 0.491718 55.149 0.399701 55.5591 0.422705C55.9692 0.445709 56.3793 0.606739 56.7894 0.905796C57.1767 1.18185 57.4501 1.50391 57.6095 1.87198C57.7918 2.24005 57.8488 2.59662 57.7804 2.94168C57.7348 3.28675 57.5868 3.60881 57.3361 3.90787C57.0855 4.18392 56.7324 4.39096 56.2768 4.52899Z" fill="#6B48FF"/>
<path d="M60.6464 2.76915C60.692 1.94099 60.9426 1.27387 61.3983 0.76777C61.8767 0.261675 62.5488 0.123649 63.4145 0.353693C63.8246 0.468714 64.1208 0.641247 64.303 0.87129C64.5081 1.10133 64.6447 1.37739 64.7131 1.69945C64.8042 1.9985 64.8498 2.33207 64.8498 2.70014C64.8498 3.0452 64.8498 3.39027 64.8498 3.73533V8.49724C64.827 8.68127 64.8156 8.86531 64.8156 9.04934C64.8384 9.21037 64.8498 9.3599 64.8498 9.49793V9.94651H65.7041C65.9547 9.94651 66.194 9.94651 66.4218 9.94651C66.6724 9.94651 66.8888 9.93501 67.0711 9.91201C68.3241 9.91201 69.3949 10.096 70.2834 10.4641C71.1947 10.8322 71.9237 11.3498 72.4705 12.0169C73.04 12.661 73.4501 13.4432 73.7007 14.3634C73.9741 15.2605 74.0994 16.2497 74.0766 17.3309C74.0539 18.6192 73.8488 19.7234 73.4615 20.6435C73.0742 21.5637 72.5274 22.3229 71.8212 22.921C71.1149 23.5191 70.2606 23.9677 69.2582 24.2667C68.2785 24.5428 67.1736 24.6808 65.9433 24.6808C64.5308 24.6808 63.4601 24.6693 62.731 24.6463C62.002 24.6233 61.478 24.4163 61.159 24.0252C60.8629 23.6341 60.7034 22.9555 60.6806 21.9893C60.6578 21.0231 60.6464 19.6084 60.6464 17.745C60.6464 15.9507 60.6464 14.1793 60.6464 12.431C60.6692 10.6827 60.6692 8.92282 60.6464 7.15148C60.6464 6.92144 60.6351 6.67989 60.6123 6.42685C60.6123 6.1738 60.6123 5.88624 60.6123 5.56418C60.6123 5.24212 60.6123 4.86255 60.6123 4.42546C60.6123 3.96538 60.6237 3.41327 60.6464 2.76915ZM67.0369 20.8161C68.2899 20.7471 69.1557 20.402 69.6341 19.7809C69.8847 19.4358 70.0783 19.0217 70.215 18.5386C70.3517 18.0556 70.4087 17.5725 70.3859 17.0894C70.3631 16.6063 70.2606 16.1462 70.0783 15.7091C69.9189 15.249 69.6569 14.8695 69.2924 14.5704C68.9734 14.2943 68.6544 14.0988 68.3355 13.9838C68.0165 13.8458 67.6862 13.7652 67.3445 13.7422C67.0027 13.6962 66.6382 13.6847 66.2509 13.7077C65.8636 13.7077 65.4194 13.7192 64.9181 13.7422V17.883L64.8498 20.7471C65.0776 20.7701 65.3168 20.7931 65.5674 20.8161C66.0003 20.8621 66.4901 20.8621 67.0369 20.8161Z" fill="#6B48FF"/>
<path d="M76.8989 2.76915C76.9445 1.94099 77.1951 1.27387 77.6507 0.76777C78.1291 0.261675 78.8012 0.123649 79.667 0.353693C80.077 0.468714 80.3732 0.641247 80.5555 0.87129C80.7605 1.10133 80.8972 1.37739 80.9656 1.69945C81.0567 1.9985 81.1022 2.33207 81.1022 2.70014C81.1022 3.0452 81.1022 3.39027 81.1022 3.73533V8.49724C81.0795 8.68127 81.0681 8.86531 81.0681 9.04934C81.0909 9.21037 81.1022 9.3599 81.1022 9.49793V9.94651H81.9566C82.2072 9.94651 82.4464 9.94651 82.6742 9.94651C82.9248 9.94651 83.1413 9.93501 83.3235 9.91201C84.5766 9.91201 85.6473 10.096 86.5358 10.4641C87.4471 10.8322 88.1762 11.3498 88.7229 12.0169C89.2925 12.661 89.7026 13.4432 89.9532 14.3634C90.2266 15.2605 90.3519 16.2497 90.3291 17.3309C90.3063 18.6192 90.1013 19.7234 89.714 20.6435C89.3267 21.5637 88.7799 22.3229 88.0736 22.921C87.3674 23.5191 86.5131 23.9677 85.5106 24.2667C84.531 24.5428 83.426 24.6808 82.1958 24.6808C80.7833 24.6808 79.7125 24.6693 78.9835 24.6463C78.2545 24.6233 77.7305 24.4163 77.4115 24.0252C77.1153 23.6341 76.9559 22.9555 76.9331 21.9893C76.9103 21.0231 76.8989 19.6084 76.8989 17.745C76.8989 15.9507 76.8989 14.1793 76.8989 12.431C76.9217 10.6827 76.9217 8.92282 76.8989 7.15148C76.8989 6.92144 76.8875 6.67989 76.8647 6.42685C76.8647 6.1738 76.8647 5.88624 76.8647 5.56418C76.8647 5.24212 76.8647 4.86255 76.8647 4.42546C76.8647 3.96538 76.8761 3.41327 76.8989 2.76915ZM83.2894 20.8161C84.5424 20.7471 85.4081 20.402 85.8865 19.7809C86.1371 19.4358 86.3308 19.0217 86.4675 18.5386C86.6042 18.0556 86.6611 17.5725 86.6384 17.0894C86.6156 16.6063 86.5131 16.1462 86.3308 15.7091C86.1713 15.249 85.9093 14.8695 85.5448 14.5704C85.2258 14.2943 84.9069 14.0988 84.5879 13.9838C84.269 13.8458 83.9386 13.7652 83.5969 13.7422C83.2552 13.6962 82.8907 13.6847 82.5034 13.7077C82.1161 13.7077 81.6718 13.7192 81.1706 13.7422V17.883L81.1022 20.7471C81.3301 20.7701 81.5693 20.7931 81.8199 20.8161C82.2528 20.8621 82.7426 20.8621 83.2894 20.8161Z" fill="#6B48FF"/>
<path d="M97.6281 21.8168C97.6053 21.9318 97.5825 22.0468 97.5597 22.1618C97.5597 22.2539 97.5597 22.3574 97.5597 22.4724L97.3547 23.197C97.3091 23.2891 97.275 23.3466 97.2522 23.3696L97.1497 23.5766C97.0357 23.8297 96.8307 24.0367 96.5345 24.1977C95.9878 24.4738 95.4068 24.5428 94.7917 24.4048C94.4044 24.3588 94.0968 24.2437 93.869 24.0597C93.6412 23.8987 93.4817 23.7031 93.3906 23.4731C93.2994 23.243 93.2311 23.013 93.1855 22.783C93.1172 22.5529 93.083 22.3459 93.083 22.1618V2.83816C93.083 2.67713 93.083 2.53911 93.083 2.42409C93.1058 2.28606 93.1286 2.15954 93.1514 2.04451C93.1741 1.88348 93.1969 1.74546 93.2197 1.63044C93.2653 1.51541 93.3108 1.38889 93.3564 1.25086C93.4247 1.02082 93.55 0.836784 93.7323 0.698758C94.0057 0.491718 94.2677 0.376697 94.5183 0.353693C94.6778 0.307683 94.8259 0.284678 94.9625 0.284678C95.0992 0.261674 95.2587 0.250172 95.441 0.250172C95.7599 0.250172 96.1245 0.34219 96.5345 0.526225C96.8535 0.71026 97.0813 0.963309 97.218 1.28537C97.4458 1.74546 97.5597 2.17104 97.5597 2.56211C97.5825 2.79216 97.5939 3.13722 97.5939 3.59731C97.6167 4.0574 97.6281 4.40246 97.6281 4.63251V4.77053C97.6737 5.50667 97.6964 6.21981 97.6964 6.90994C97.6964 7.57706 97.685 8.31321 97.6623 9.11836C97.6623 9.90051 97.6509 10.6597 97.6281 11.3958C97.6281 12.1089 97.6281 12.8221 97.6281 13.5352V20.7816C97.6281 20.8736 97.6281 20.9656 97.6281 21.0576C97.6509 21.1266 97.6623 21.2072 97.6623 21.2992C97.6623 21.5292 97.6509 21.7017 97.6281 21.8168Z" fill="#6B48FF"/>
<path d="M112.249 19.8499C112.522 19.7809 112.796 19.7349 113.069 19.7119C113.365 19.6889 113.627 19.7234 113.855 19.8154C114.106 19.9074 114.311 20.0684 114.47 20.2985C114.63 20.5055 114.71 20.8046 114.71 21.1957C114.71 21.4717 114.641 21.7363 114.504 21.9893C114.368 22.2424 114.197 22.4724 113.992 22.6794C113.787 22.8865 113.559 23.0705 113.308 23.2315C113.058 23.3696 112.819 23.4846 112.591 23.5766C111.93 23.8757 111.167 24.1057 110.301 24.2667C109.458 24.4278 108.581 24.4853 107.67 24.4393C106.44 24.3933 105.255 24.1517 104.116 23.7146C102.999 23.2545 102.122 22.5069 101.484 21.4717C100.892 20.4595 100.539 19.3323 100.425 18.0901C100.311 16.8478 100.368 15.6746 100.596 14.5704C100.846 13.2361 101.268 12.1549 101.86 11.3268C102.475 10.4756 103.204 9.79699 104.047 9.29089C105.073 8.69278 106.223 8.38222 107.499 8.35921C108.775 8.33621 109.994 8.58926 111.155 9.11836C111.93 9.46342 112.625 9.93501 113.24 10.5331C113.855 11.1082 114.322 11.8099 114.641 12.638C114.732 12.8451 114.801 13.0981 114.846 13.3972C114.915 13.6962 114.96 14.0183 114.983 14.3634C115.006 14.6854 115.006 15.0075 114.983 15.3295C114.96 15.6516 114.903 15.9392 114.812 16.1922C114.675 16.6063 114.504 16.9283 114.299 17.1584C114.094 17.3884 113.832 17.561 113.513 17.676C113.194 17.791 112.807 17.8715 112.352 17.9175C111.919 17.9405 111.395 17.9635 110.78 17.9865C110.233 18.0095 109.72 18.021 109.242 18.021C108.763 18.021 108.274 18.021 107.772 18.021C107.271 17.998 106.747 17.9865 106.2 17.9865C105.676 17.9635 105.084 17.9405 104.423 17.9175C104.355 18.3776 104.412 18.7802 104.594 19.1253C104.799 19.4473 105.073 19.7234 105.414 19.9534C105.756 20.1605 106.143 20.3215 106.576 20.4365C107.009 20.5515 107.431 20.6205 107.841 20.6435C108.615 20.6896 109.356 20.632 110.062 20.471C110.768 20.287 111.497 20.0799 112.249 19.8499ZM110.78 13.1556C110.347 12.6495 109.891 12.2815 109.413 12.0514C109.048 11.8904 108.661 11.8214 108.251 11.8444C107.863 11.8444 107.488 11.9019 107.123 12.0169C106.462 12.1779 105.904 12.523 105.448 13.0521C105.403 13.0981 105.323 13.2131 105.209 13.3972C105.095 13.5582 104.981 13.7307 104.868 13.9148C104.776 14.0988 104.708 14.2713 104.662 14.4324C104.617 14.5934 104.64 14.6739 104.731 14.6739H111.429C111.406 14.3519 111.349 14.0873 111.258 13.8803C111.167 13.6502 111.007 13.4087 110.78 13.1556Z" fill="#6B48FF"/>
</svg>
